# File produced by Open Asset Import Library (http://www.assimp.sf.net)
# (assimp v5.3.0)

mtllib rhombicuboctahedron.converted.mtl

# 24 vertex positions
v 35.3602982 0.00500488002 35.3602982
v 85.3602982 0.00500488002 35.3602982
v 85.3602982 0.00500488002 85.3602982
v 35.3602982 0.00500488002 85.3602982
v 85.3602982 120.716003 35.3602982
v 35.3602982 120.716003 35.3602982
v 35.3602982 120.716003 85.3602982
v 85.3602982 120.716003 85.3602982
v 0.00500488002 35.3602982 35.3602982
v 0.00500488002 35.3602982 85.3602982
v 0.00500488002 85.3602982 85.3602982
v 0.00500488002 85.3602982 35.3602982
v 120.716003 35.3602982 85.3602982
v 120.716003 35.3602982 35.3602982
v 120.716003 85.3602982 35.3602982
v 120.716003 85.3602982 85.3602982
v 35.3602982 35.3602982 120.716003
v 85.3602982 35.3602982 120.716003
v 85.3602982 85.3602982 120.716003
v 35.3602982 85.3602982 120.716003
v 85.3602982 35.3602982 0.00500488002
v 35.3602982 35.3602982 0.00500488002
v 35.3602982 85.3602982 0.00500488002
v 85.3602982 85.3602982 0.00500488002

# 0 UV coordinates

# 8 vertex normals
vn -0.577350259 -0.577350259 -0.577350259
vn 0.577345788 -0.577352583 -0.577352583
vn 0.577348053 -0.577354729 0.577348053
vn -0.577352524 -0.577352524 0.577345729
vn 0.577348053 0.577348053 -0.577354729
vn -0.577352583 0.577345788 -0.577352583
vn -0.577354729 0.577348053 0.577348053
vn 0.577350318 0.577350318 0.577350318

# Mesh '1' with 44 faces
g 1
usemtl DefaultMaterial
f  1//1 2//2 3//3
f  1//1 3//3 4//4
f  5//5 6//6 7//7
f  5//5 7//7 8//8
f  9//1 10//4 11//7
f  9//1 11//7 12//6
f  13//3 14//2 15//5
f  13//3 15//5 16//8
f  17//4 18//3 19//8
f  17//4 19//8 20//7
f  21//2 22//1 23//6
f  21//2 23//6 24//5
f  6//6 5//5 24//5
f  6//6 24//5 23//6
f  5//5 8//8 16//8
f  5//5 16//8 15//5
f  8//8 7//7 20//7
f  8//8 20//7 19//8
f  7//7 6//6 12//6
f  7//7 12//6 11//7
f  2//2 1//1 22//1
f  2//2 22//1 21//2
f  3//3 2//2 14//2
f  3//3 14//2 13//3
f  4//4 3//3 18//3
f  4//4 18//3 17//4
f  1//1 4//4 10//4
f  1//1 10//4 9//1
f  21//2 24//5 15//5
f  21//2 15//5 14//2
f  13//3 16//8 19//8
f  13//3 19//8 18//3
f  17//4 20//7 11//7
f  17//4 11//7 10//4
f  9//1 12//6 23//6
f  9//1 23//6 22//1
f  24//5 5//5 15//5
f  16//8 8//8 19//8
f  20//7 7//7 11//7
f  12//6 6//6 23//6
f  14//2 2//2 21//2
f  18//3 3//3 13//3
f  10//4 4//4 17//4
f  22//1 1//1 9//1

