# File produced by Open Asset Import Library (http://www.assimp.sf.net)
# (assimp v5.3.0)

mtllib cubes.converted.mtl

# 32 vertex positions
v 0 1 0
v 1 1 0
v 1 1 -1
v 0 1 -1
v 0 0 0
v 1 0 0
v 1 0 -1
v 0 0 -1
v 2 1 0
v 3 1 0
v 3 1 -1
v 2 1 -1
v 2 0 0
v 3 0 0
v 3 0 -1
v 2 0 -1
v 2 1 -2
v 3 1 -2
v 3 1 -3
v 2 1 -3
v 2 0 -2
v 3 0 -2
v 3 0 -3
v 2 0 -3
v 0 1 -2
v 1 1 -2
v 1 1 -3
v 0 1 -3
v 0 0 -2
v 1 0 -2
v 1 0 -3
v 0 0 -3

# 4 UV coordinates
vt 0 0 0
vt 1 0 0
vt 1 1 0
vt 0 1 0

# 8 vertex normals
vn -0.666666687 0.666666687 0.333333343
vn 0.408248276 0.408248276 0.816496551
vn 0.666666687 0.666666687 -0.333333343
vn -0.408248276 0.408248276 -0.816496551
vn -0.333333343 -0.666666687 0.666666687
vn 0.816496551 -0.408248276 0.408248276
vn 0.333333343 -0.666666687 -0.666666687
vn -0.816496551 -0.408248276 -0.408248276

# Mesh '0' with 2 faces
g 0
usemtl tex
f  1/1/1 2/2/2 3/3/3
f  1/1/1 3/3/3 4/4/4

# Mesh '0' with 2 faces
g 0
usemtl red
f  5/1/5 6/2/6 2/2/2
f  5/1/5 2/2/2 1/1/1

# Mesh '0' with 2 faces
g 0
usemtl green
f  6/2/6 7/3/7 3/3/3
f  6/2/6 3/3/3 2/2/2

# Mesh '0' with 2 faces
g 0
usemtl blue
f  7/3/7 8/4/8 4/4/4
f  7/3/7 4/4/4 3/3/3

# Mesh '0' with 4 faces
g 0
usemtl white
f  8/4/8 5/1/5 1/1/1
f  8/4/8 1/1/1 4/4/4
f  5/1/5 8/4/8 7/3/7
f  5/1/5 7/3/7 6/2/6

# Mesh '0' with 2 faces
g 0
usemtl tex
f  9/1/1 10/2/2 11/3/3
f  9/1/1 11/3/3 12/4/4

# Mesh '0' with 2 faces
g 0
usemtl red
f  13/1/5 14/2/6 10/2/2
f  13/1/5 10/2/2 9/1/1

# Mesh '0' with 2 faces
g 0
usemtl green
f  14/2/6 15/3/7 11/3/3
f  14/2/6 11/3/3 10/2/2

# Mesh '0' with 2 faces
g 0
usemtl blue
f  15/3/7 16/4/8 12/4/4
f  15/3/7 12/4/4 11/3/3

# Mesh '0' with 4 faces
g 0
usemtl white
f  16/4/8 13/1/5 9/1/1
f  16/4/8 9/1/1 12/4/4
f  13/1/5 16/4/8 15/3/7
f  13/1/5 15/3/7 14/2/6

# Mesh '0' with 2 faces
g 0
usemtl tex
f  17/1/1 18/2/2 19/3/3
f  17/1/1 19/3/3 20/4/4

# Mesh '0' with 2 faces
g 0
usemtl red
f  21/1/5 22/2/6 18/2/2
f  21/1/5 18/2/2 17/1/1

# Mesh '0' with 2 faces
g 0
usemtl green
f  22/2/6 23/3/7 19/3/3
f  22/2/6 19/3/3 18/2/2

# Mesh '0' with 2 faces
g 0
usemtl blue
f  23/3/7 24/4/8 20/4/4
f  23/3/7 20/4/4 19/3/3

# Mesh '0' with 4 faces
g 0
usemtl white
f  24/4/8 21/1/5 17/1/1
f  24/4/8 17/1/1 20/4/4
f  21/1/5 24/4/8 23/3/7
f  21/1/5 23/3/7 22/2/6

# Mesh '0' with 2 faces
g 0
usemtl tex
f  25/1/1 26/2/2 27/3/3
f  25/1/1 27/3/3 28/4/4

# Mesh '0' with 2 faces
g 0
usemtl red
f  29/1/5 30/2/6 26/2/2
f  29/1/5 26/2/2 25/1/1

# Mesh '0' with 2 faces
g 0
usemtl green
f  30/2/6 31/3/7 27/3/3
f  30/2/6 27/3/3 26/2/2

# Mesh '0' with 2 faces
g 0
usemtl blue
f  31/3/7 32/4/8 28/4/4
f  31/3/7 28/4/4 27/3/3

# Mesh '0' with 4 faces
g 0
usemtl white
f  32/4/8 29/1/5 25/1/1
f  32/4/8 25/1/1 28/4/4
f  29/1/5 32/4/8 31/3/7
f  29/1/5 31/3/7 30/2/6

